<svg xmlns="http://www.w3.org/2000/svg" width="18" height="18" viewBox="0 0 18 18">
  <path id="Union_26" data-name="Union 26" d="M12.036,18H0V7A1.516,1.516,0,0,1,1.321,5.53V4.944H0V0H12.672V4.944H11.351V5.53A1.516,1.516,0,0,1,12.672,7v4.322a2.228,2.228,0,0,1,1.11.571,2.027,2.027,0,0,1,.594,1.919H15.8A2.1,2.1,0,1,1,15.8,18Zm2.435-1.055H15.8a1.041,1.041,0,1,0,0-2.078H14.472Zm-2.818-.066.03.01.013,0,.051.015.012,0,.04.009.019,0,.034.006.021,0,.034,0,.02,0,.037,0h1.4V15.252ZM8.792,15.17l-.036.036-.035.039-.008.008a1,1,0,0,0,0,1.309,1.079,1.079,0,0,0,.075.078l.04.036a1.132,1.132,0,0,0,1.505-.036l.938-.893L9.731,14.277ZM7.654,16.945,7.628,16.9l-.014-.024c-.015-.028-.03-.056-.044-.085l-.008-.018c-.011-.022-.021-.045-.031-.069l-.014-.031c-.008-.019-.015-.038-.022-.057s-.009-.023-.013-.034-.013-.038-.019-.057-.008-.022-.011-.034-.012-.041-.018-.062-.006-.019-.008-.028c-.007-.03-.014-.06-.021-.091,0-.006,0-.012,0-.018,0-.024-.009-.049-.013-.074s0-.022,0-.034-.005-.04-.007-.06,0-.025,0-.036,0-.039,0-.058,0-.024,0-.036,0-.041,0-.062,0-.02,0-.031c0-.031,0-.062,0-.092,0-.006,0-.011,0-.017,0-.026,0-.051.006-.076s0-.022,0-.034,0-.04.007-.06,0-.024.006-.036.006-.039.01-.057l.007-.036c0-.019.008-.037.013-.055H1.108v1.509Zm4.525-4.61h-.025a1.121,1.121,0,0,0-.588.209l-.007,0-.031.024-.017.014-.021.017-.037.034-.938.893L12.059,15,13,14.108a.963.963,0,0,0,.087-.1l.009-.01a1,1,0,0,0-.1-1.365,1.117,1.117,0,0,0-.772-.3ZM2.429,5.512h7.814V4.944H2.429ZM1.108,3.89H11.563V1.055H1.108Z" fill="#5c6d96"/>
</svg>
