<svg xmlns="http://www.w3.org/2000/svg" width="15" height="14" viewBox="0 0 15 14">
  <path id="icons8-heart_with_pulse" d="M7.091,4A4.128,4.128,0,0,0,3,8.165a5.568,5.568,0,0,0,.088.926H4.354a1.818,1.818,0,0,1,1.3.541l.3.3L7.441,6.9a.61.61,0,0,1,.6-.349.625.625,0,0,1,.548.433L9.929,11.06l.306-.782a1.846,1.846,0,0,1,1.722-1.187h1.216a1.241,1.241,0,0,1,1.077-.636,1.273,1.273,0,0,1,0,2.545,1.242,1.242,0,0,1-1.077-.636H11.958a.6.6,0,0,0-.562.387l-.94,2.4a.626.626,0,0,1-.581.4H9.857a.625.625,0,0,1-.574-.435L7.884,8.84l-1.2,2.445a.629.629,0,0,1-.457.343.62.62,0,0,1-.54-.174l-.914-.915a.592.592,0,0,0-.42-.175H3.43c1.183,3.151,4.518,5.939,6.255,7.328l.028.024.035.029h0a1.226,1.226,0,0,0,1.5,0h0l.015-.011.011-.009.012-.011c2.125-1.7,6.71-5.534,6.71-9.548A4.128,4.128,0,0,0,13.909,4,4.448,4.448,0,0,0,10.5,5.909,4.448,4.448,0,0,0,7.091,4Z" transform="translate(-3 -4)" fill="#5c6d96"/>
</svg>
