<svg id="blood-donation_2_" data-name="blood-donation (2)" xmlns="http://www.w3.org/2000/svg" width="17" height="17" viewBox="0 0 17 17">
  <path id="Path_874" data-name="Path 874" d="M109.465,6.906l.885,3.317,1.14-5.16,1.162,4.078.854-1.62.82,2.1h2.222a32.212,32.212,0,0,0-2.141-4.653C113.17,2.674,111.483,0,111.483,0s-1.687,2.674-2.923,4.972a34.314,34.314,0,0,0-2.04,4.363h1.961Zm0,0" transform="translate(-102.983)" fill="#5c6d96"/>
  <path id="Path_875" data-name="Path 875" d="M17,275.406H13.579a9.552,9.552,0,0,1,.275.974H10.662l-.275-.705-.995,1.888-.763-2.677-1.171,5.3L6.287,275.8l-.118.292H3.216q.116-.445.305-.974H0v.995H3.216a4.847,4.847,0,0,0-.183,1.187,5.467,5.467,0,0,0,10.935,0,4.275,4.275,0,0,0-.113-.9H17Zm0,0" transform="translate(0 -265.76)" fill="#5c6d96"/>
</svg>
