<svg id="hospital" xmlns="http://www.w3.org/2000/svg" width="14" height="14" viewBox="0 0 14 14">
  <path id="Path_877" data-name="Path 877" d="M443.784,266.9a1.207,1.207,0,0,0-1.206-1.206h-.707l0,6.732h1.915Zm0,0" transform="translate(-429.789 -258.426)" fill="#5c6d96"/>
  <path id="Path_878" data-name="Path 878" d="M1.916,265.691H1.1A1.185,1.185,0,0,0,0,266.9l0,5.528H1.92l0-6.732Zm0,0" transform="translate(0 -258.426)" fill="#5c6d96"/>
  <path id="Path_879" data-name="Path 879" d="M227.44,396.281h-.991a.32.32,0,0,0-.32.32l0,2.842h1.631l0-2.843A.32.32,0,0,0,227.44,396.281Zm0,0" transform="translate(-219.946 -385.445)" fill="#5c6d96"/>
  <path id="Path_880" data-name="Path 880" d="M106.924,0h-5.253a1.637,1.637,0,0,0-1.636,1.635l0,12.363h2.627l0-3.573a.41.41,0,0,1,.41-.41h2.451a.41.41,0,0,1,.41.41l0,3.573h2.627l0-12.363A1.637,1.637,0,0,0,106.924,0Zm-3.6,9.021h-.931a.419.419,0,0,1-.423-.392.41.41,0,0,1,.41-.429h.931a.419.419,0,0,1,.423.392A.41.41,0,0,1,103.32,9.021Zm0-1.641h-.931a.419.419,0,0,1-.423-.392.41.41,0,0,1,.41-.429h.931a.419.419,0,0,1,.423.392A.41.41,0,0,1,103.32,7.381Zm0-1.641h-.931a.419.419,0,0,1-.423-.392.41.41,0,0,1,.41-.429h.931a.419.419,0,0,1,.423.392A.41.41,0,0,1,103.32,5.74Zm2.9,3.281h-.931a.419.419,0,0,1-.423-.392.41.41,0,0,1,.41-.429h.931a.419.419,0,0,1,.423.392A.41.41,0,0,1,106.219,9.021Zm0-1.641h-.931a.419.419,0,0,1-.423-.392.41.41,0,0,1,.41-.429h.931a.419.419,0,0,1,.423.392A.41.41,0,0,1,106.219,7.381Zm0-1.641h-.931a.419.419,0,0,1-.423-.392.41.41,0,0,1,.41-.429h.931a.419.419,0,0,1,.423.392A.41.41,0,0,1,106.219,5.74Zm0,0" transform="translate(-97.3)" fill="#5c6d96"/>
</svg>
