<svg xmlns="http://www.w3.org/2000/svg" width="18.381" height="16.156" viewBox="0 0 18.381 16.156"><defs><style>.a{fill:#fff;}</style></defs><g transform="translate(0 0)"><path class="a" d="M2.155,1.616V4.363a3.733,3.733,0,0,1,.539-.055H5.386V1.616a1.616,1.616,0,1,0-3.231,0Zm9.729,1.617V15.079a1.077,1.077,0,1,0,2.154,0V3.232a1.077,1.077,0,1,0-2.154,0Zm-5.42,1.9v8.053L10.806,14.9V3.406Zm9.544.218-.761.761a.538.538,0,1,0,.761.761l.761-.761a.538.538,0,0,0-.761-.761ZM2.693,5.386A2.7,2.7,0,0,0,.055,7.54H2.693a.538.538,0,1,1,0,1.077H0V9.693H2.693a.539.539,0,1,1,0,1.078H.055a2.7,2.7,0,0,0,2.638,2.154H5.385V5.386ZM16.73,8.617a.538.538,0,1,0,0,1.077h1.112a.538.538,0,1,0,0-1.077ZM15.245,11.44a.537.537,0,0,0,0,.761l.761.762a.539.539,0,0,0,.761-.762l-.761-.761a.538.538,0,0,0-.761,0Z" transform="translate(18.381 16.156) rotate(180)"/></g></svg>