<svg xmlns="http://www.w3.org/2000/svg" width="20.001" height="16" viewBox="0 0 20.001 16">
  <path id="Union_34" data-name="Union 34" d="M560.364-1551v-1.779h-4.545a1.8,1.8,0,0,1-1.819-1.777v-10.667a1.8,1.8,0,0,1,1.819-1.778h16.364a1.8,1.8,0,0,1,1.818,1.778l-.009,10.667a1.8,1.8,0,0,1-1.809,1.777h-4.546V-1551Zm-4.545-3.556h16.364v-10.667H555.819Zm4.545-1.441v-1.4c0-1.136,2.33-1.707,3.491-1.707s3.492.571,3.492,1.707v1.4Zm1.9-5.9a1.571,1.571,0,0,1,1.587-1.552,1.565,1.565,0,0,1,1.581,1.552,1.565,1.565,0,0,1-1.581,1.552A1.571,1.571,0,0,1,562.268-1561.892Z" transform="translate(-554 1567)" fill="#6dd3f9"/>
</svg>
