<svg xmlns="http://www.w3.org/2000/svg" width="11.61" height="17.5" viewBox="0 0 11.61 17.5">
  <path id="Path_870" data-name="Path 870" d="M16.772,2a1.712,1.712,0,1,0,1.742,1.712A1.727,1.727,0,0,0,16.772,2Zm-1.66,4.185a1.567,1.567,0,0,0-.942.314l-2.63,1.7-.056.036,0,0a.755.755,0,0,0-.263.33l0,.006L10.121,11.1a.751.751,0,0,0-.121.407.775.775,0,0,0,1.522.19l.986-2.171,1.766-.993c-.254,1.162-.73,3.327-.73,3.327v.007a1.514,1.514,0,0,0-.06.4,1.49,1.49,0,0,0,.248.822l0,0,0,0a1.484,1.484,0,0,0,.333.352l1.779,1.89.73,3.22a.952.952,0,0,0,.085.37l0,.018h0a.97.97,0,0,0,1.843-.4.938.938,0,0,0-.106-.432l-.772-3.428-1.444-2.415L17.3,7.9h0A1.33,1.33,0,0,0,16,6.185h-.886Zm3,1.456a1.62,1.62,0,0,1-.014.174l-.464,1.858.724.788,2.171.611h0l.023.007h0a.753.753,0,0,0,.278.054.758.758,0,0,0,.254-1.477v0l-1.93-.557Zm-4.85,6.1L12.9,15.535,11.06,17.873a.947.947,0,0,0-.286.676.968.968,0,0,0,1.8.481h0L14.5,16.568l.346-1.275Z" transform="translate(-10 -2)" fill="#8992ad"/>
</svg>
