<svg xmlns="http://www.w3.org/2000/svg" width="18" height="18" viewBox="0 0 18 18">
  <path id="ic_settings_24px" d="M18.147,11.882A6.826,6.826,0,0,0,18.212,11a6.826,6.826,0,0,0-.065-.882L20.1,8.633a.446.446,0,0,0,.111-.576L18.36,4.943a.471.471,0,0,0-.564-.2l-2.3.9a6.808,6.808,0,0,0-1.564-.882l-.352-2.385A.447.447,0,0,0,13.123,2h-3.7a.447.447,0,0,0-.453.378L8.617,4.763a7.159,7.159,0,0,0-1.564.882l-2.3-.9a.457.457,0,0,0-.564.2L2.335,8.057a.436.436,0,0,0,.111.576L4.4,10.118A6.946,6.946,0,0,0,4.333,11a6.946,6.946,0,0,0,.065.882L2.446,13.367a.446.446,0,0,0-.111.576l1.85,3.114a.471.471,0,0,0,.564.2l2.3-.9a6.808,6.808,0,0,0,1.564.882l.352,2.385A.447.447,0,0,0,9.422,20h3.7a.447.447,0,0,0,.453-.378l.352-2.385a7.159,7.159,0,0,0,1.564-.882l2.3.9a.457.457,0,0,0,.564-.2l1.85-3.114a.446.446,0,0,0-.111-.576ZM11.273,14.15A3.151,3.151,0,1,1,14.511,11,3.2,3.2,0,0,1,11.273,14.15Z" transform="translate(-2.271 -2)" fill="#6dd3f9"/>
</svg>
