<svg xmlns="http://www.w3.org/2000/svg" width="12" height="17" viewBox="0 0 12 17">
  <path id="blood-drop" d="M9.145,4.141C7.76,1.963,6.356.188,6.342.171a.427.427,0,0,0-.683,0c-.014.018-1.419,1.792-2.8,3.97C.961,7.121,0,9.416,0,10.963a5.946,5.946,0,0,0,1.782,4.451A6.078,6.078,0,0,0,6,17a6.077,6.077,0,0,0,4.218-1.586A5.946,5.946,0,0,0,12,10.963C12,9.416,11.039,7.121,9.145,4.141ZM9.035,13.9a.428.428,0,0,1-.3.121.436.436,0,0,1-.344-.173.533.533,0,0,1,.048-.7,2.879,2.879,0,0,0,.837-2.187.455.455,0,1,1,.907,0A3.874,3.874,0,0,1,9.035,13.9Zm0,0" transform="translate(0 0)" fill="#5c6d96"/>
</svg>
