<svg id="icon" xmlns="http://www.w3.org/2000/svg" width="15" height="16.03" viewBox="0 0 15 16.03">
  <path id="XMLID_4_" d="M24.274,0H14.6a3.155,3.155,0,0,0-3.145,3.157v.729h-.726a.729.729,0,0,0,0,1.457h.726V7.286h-.726a.729.729,0,0,0,0,1.457h.726v1.943h-.726a.729.729,0,0,0,0,1.457h.726v.729A3.155,3.155,0,0,0,14.6,16.03h9.677A.727.727,0,0,0,25,15.3V.729A.727.727,0,0,0,24.274,0ZM14.839,11.9a3.394,3.394,0,0,1,3.387-3.4A2.186,2.186,0,1,1,20.4,6.315,2.182,2.182,0,0,1,18.226,8.5a3.394,3.394,0,0,1,3.387,3.4Z" transform="translate(-10 0)" fill="#5c6d96"/>
</svg>
