<svg id="blood-donation_2_" data-name="blood-donation (2)" xmlns="http://www.w3.org/2000/svg" width="15" height="15" viewBox="0 0 15 15">
  <path id="Path_874" data-name="Path 874" d="M109.118,6.093,109.9,9.02,110.9,4.468l1.026,3.6.753-1.43.723,1.856h1.961a28.424,28.424,0,0,0-1.889-4.105C112.387,2.36,110.9,0,110.9,0s-1.489,2.36-2.579,4.387a30.277,30.277,0,0,0-1.8,3.85h1.73Zm0,0" transform="translate(-103.399)" fill="#5c6d96"/>
  <path id="Path_875" data-name="Path 875" d="M15,275.345H11.982a8.434,8.434,0,0,1,.243.86H9.407l-.243-.622-.878,1.666-.673-2.362-1.033,4.678-1.033-3.873-.1.257H2.837q.1-.393.269-.859H0v.878H2.837a4.277,4.277,0,0,0-.161,1.047,4.824,4.824,0,0,0,9.648,0,3.771,3.771,0,0,0-.1-.792H15Zm0,0" transform="translate(0 -266.833)" fill="#5c6d96"/>
</svg>
