<svg xmlns="http://www.w3.org/2000/svg" width="18" height="18" viewBox="0 0 18 18">
  <g id="Group_850" data-name="Group 850" transform="translate(-761 -202)">
    <g id="blood-donation_2_" data-name="blood-donation (2)" transform="translate(761 202)">
      <path id="Path_874" data-name="Path 874" d="M109.638,7.312l.937,3.512,1.207-5.463,1.231,4.318.9-1.716.868,2.228h2.353a34.108,34.108,0,0,0-2.267-4.926c-1.309-2.433-3.1-5.265-3.1-5.265s-1.786,2.832-3.1,5.265a36.331,36.331,0,0,0-2.16,4.62H108.6Zm0,0" transform="translate(-102.775)" fill="#8992ad"/>
      <path id="Path_875" data-name="Path 875" d="M18,275.437H14.378a10.12,10.12,0,0,1,.291,1.032h-3.38L11,275.722l-1.053,2-.808-2.834L7.9,280.5l-1.24-4.647-.125.309H3.4q.123-.471.323-1.031H0v1.053H3.4a5.132,5.132,0,0,0-.194,1.257,5.789,5.789,0,0,0,11.578,0,4.525,4.525,0,0,0-.12-.95H18Zm0,0" transform="translate(0 -265.223)" fill="#8992ad"/>
    </g>
  </g>
</svg>
