<svg xmlns="http://www.w3.org/2000/svg" width="35" height="32" viewBox="0 0 35 32">
  <path id="icons8-heart_with_pulse" d="M12.545,4A9.532,9.532,0,0,0,3,13.52a12.475,12.475,0,0,0,.205,2.116H6.159a4.288,4.288,0,0,1,3.022,1.236l.7.688,3.478-6.938a1.429,1.429,0,0,1,1.407-.8,1.453,1.453,0,0,1,1.279.989l3.119,9.324.715-1.787A4.306,4.306,0,0,1,23.9,15.636h2.837a2.909,2.909,0,1,1,0,2.909H23.9a1.4,1.4,0,0,0-1.31.884L20.4,24.9a1.461,1.461,0,0,1-1.356.915H19a1.455,1.455,0,0,1-1.339-.994L14.4,15.063l-2.8,5.588a1.458,1.458,0,0,1-2.324.386L7.139,18.946a1.4,1.4,0,0,0-.98-.4H4C6.764,25.748,14.545,32.12,18.6,35.3l.066.054.083.065,0,0a2.907,2.907,0,0,0,3.506,0v0l.034-.026.026-.02.028-.026C27.3,31.463,38,22.694,38,13.52A9.532,9.532,0,0,0,28.455,4C23.417,4,20.5,8.364,20.5,8.364S17.583,4,12.545,4Z" transform="translate(-3 -4)" fill="#0070b9"/>
</svg>
