<svg xmlns="http://www.w3.org/2000/svg" width="19" height="31" viewBox="0 0 19 31">
  <path id="Path_870" data-name="Path 870" d="M21.083,2a2.946,2.946,0,0,0-2.85,3.033,2.855,2.855,0,1,0,5.7,0A2.946,2.946,0,0,0,21.083,2ZM18.367,9.413a2.438,2.438,0,0,0-1.541.555l-4.3,3c-.032.021-.062.042-.092.063l-.007.008a1.324,1.324,0,0,0-.43.584l0,.011L10.2,18.127a1.412,1.412,0,0,0-.2.721A1.308,1.308,0,0,0,11.267,20.2a1.285,1.285,0,0,0,1.225-1.011L14.1,15.339l2.89-1.758c-.416,2.059-1.195,5.894-1.195,5.894v.013a2.886,2.886,0,0,0-.1.708,2.8,2.8,0,0,0,.406,1.456l0,.008.007.008a2.555,2.555,0,0,0,.544.624l2.912,3.349,1.195,5.7a1.8,1.8,0,0,0,.139.655l.007.032,0,0A1.578,1.578,0,0,0,22.35,33a1.638,1.638,0,0,0,1.583-1.685,1.773,1.773,0,0,0-.173-.766L22.5,24.476,20.133,20.2l1.808-7.75v0a2.57,2.57,0,0,0,.092-.674,2.29,2.29,0,0,0-2.217-2.359h-1.45Zm4.916,2.58c0,.105-.007.208-.022.308l-.76,3.291,1.185,1.4,3.553,1.082h0l.037.013v0a1.15,1.15,0,0,0,.455.095A1.308,1.308,0,0,0,29,16.826a1.344,1.344,0,0,0-.851-1.269v-.005l-3.159-.987ZM15.346,22.807l-.594,3.169-3.018,4.141a1.747,1.747,0,0,0-.468,1.2A1.635,1.635,0,0,0,12.85,33a1.561,1.561,0,0,0,1.358-.832l.007,0,3.147-4.365.567-2.259Z" transform="translate(-10 -2)" fill="#656e87"/>
</svg>
