<svg id="icon" xmlns="http://www.w3.org/2000/svg" width="15" height="17" viewBox="0 0 15 17">
  <path id="Subtraction_1" data-name="Subtraction 1" d="M13.572,17h-10a2.137,2.137,0,0,1-2.143-2.125V12.75H2.857v-.708H.715a.709.709,0,1,1,0-1.417h.714V9.917H2.857V9.208H.715a.708.708,0,1,1,0-1.416h.714V7.083H2.857V6.375H.715A.674.674,0,0,1,0,5.667a.674.674,0,0,1,.715-.709h.714V4.25H2.857V3.542H.715A.674.674,0,0,1,0,2.833a.673.673,0,0,1,.715-.708h.714V1.416A1.424,1.424,0,0,1,2.857,0h8.572a1.424,1.424,0,0,1,1.428,1.416h.715a1.461,1.461,0,0,1,1.027.4A1.436,1.436,0,0,1,15,2.833V15.584a1.435,1.435,0,0,1-.4,1.018A1.461,1.461,0,0,1,13.572,17ZM2.857,14.875a.712.712,0,0,0,.715.709h10V2.833h-.715V13.458a1.424,1.424,0,0,1-1.428,1.416ZM8.31,5.607H8.245a2.992,2.992,0,0,0,0,5.984h.03a2.881,2.881,0,0,0,2.605-1.686,2.222,2.222,0,0,1-.9.191H9.931A2.342,2.342,0,0,1,7.612,7.745a2.444,2.444,0,0,1,1.25-2.1A4.321,4.321,0,0,0,8.31,5.607Z" fill="#5c6d96"/>
</svg>
