<svg xmlns="http://www.w3.org/2000/svg" width="9.75" height="18" viewBox="0 0 9.75 18">
  <g id="Group_852" data-name="Group 852" transform="translate(-799 -202)">
    <g id="surface1" transform="translate(799 202)">
      <path id="Path_873" data-name="Path 873" d="M11,.094a2.81,2.81,0,0,0-2.824,2.8V9.476a4.73,4.73,0,0,0-1.985,3.849,4.809,4.809,0,0,0,9.618,0A4.734,4.734,0,0,0,13.82,9.476V7.027h2.118v-1.4H13.82v-2.1h2.118v-1.4h-2.25A2.794,2.794,0,0,0,11,.094Zm0,1.4a1.409,1.409,0,0,1,1.412,1.4V4.227H10.29V9.892c0,.653-.284.817-.419.875a2.794,2.794,0,0,0-1.7,2.559.353.353,0,0,1-.706,0,3.468,3.468,0,0,1,1.7-2.974.826.826,0,0,0,.4-.525h.022V2.893A1.409,1.409,0,0,1,11,1.494Z" transform="translate(-6.188 -0.094)" fill="#8992ad"/>
    </g>
  </g>
</svg>
