<svg xmlns="http://www.w3.org/2000/svg" width="20" height="30" viewBox="0 0 20 30">
  <path id="icons8-fat_man" d="M17,2a3.677,3.677,0,0,0-3.75,3.6,3.753,3.753,0,0,0,7.5,0A3.677,3.677,0,0,0,17,2Zm-2.412,9.6a3.8,3.8,0,0,0-3.12,1.6L7.21,19.334A1.171,1.171,0,0,0,7.557,21a1.282,1.282,0,0,0,1.734-.333l1.76-2.534A7.711,7.711,0,0,0,10.75,20c0,1.466,1.08,2.4,2.5,2.948V30.76a1.294,1.294,0,0,0,2.581.082l.547-6.684a.626.626,0,0,1,1.245,0l.547,6.684a1.294,1.294,0,0,0,2.581-.082V22.948c1.42-.552,2.5-1.483,2.5-2.948a7.71,7.71,0,0,0-.3-1.868l1.76,2.534A1.282,1.282,0,0,0,26.443,21a1.171,1.171,0,0,0,.347-1.664L22.532,13.2a3.8,3.8,0,0,0-3.12-1.6Z" transform="translate(-7 -2)" fill="#656e87" opacity="0.5"/>
</svg>
