<svg xmlns="http://www.w3.org/2000/svg" width="42" height="40" viewBox="0 0 42 40">
  <g id="surface1" transform="translate(-22.247 -11.369)">
    <g id="Group_604" data-name="Group 604" transform="translate(22.784 11.369)">
      <g id="Group_601" data-name="Group 601" transform="translate(0 5.79)">
        <path id="Path_840" data-name="Path 840" d="M16.9-31.377a1.1,1.1,0,0,0,.8-.245,1.26,1.26,0,0,0,.245-.888v-5.726a.19.19,0,0,1,.213-.217H19.53a.191.191,0,0,1,.213.217V-32.4a3.024,3.024,0,0,1-.579,2.043,2.521,2.521,0,0,1-1.964.65H6.923A2.468,2.468,0,0,1,5-30.361,3.034,3.034,0,0,1,4.422-32.4v-4.465a.19.19,0,0,1,.213-.217H6a.191.191,0,0,1,.213.217v4.359a1.256,1.256,0,0,0,.245.888,1.068,1.068,0,0,0,.782.245Zm-5.527,5.641a.189.189,0,0,1-.213-.213v-1.559a.19.19,0,0,1,.213-.217h1.453a.19.19,0,0,1,.213.217v1.559a.189.189,0,0,1-.213.213Zm0,0" transform="translate(-4.422 38.453)" fill="#fff"/>
      </g>
      <g id="Group_602" data-name="Group 602" transform="translate(17.789)">
        <path id="Path_841" data-name="Path 841" d="M6.578-63.709a.189.189,0,0,1,.213-.213H8.159a.189.189,0,0,1,.213.213v11.52a1.256,1.256,0,0,0,.245.888,1.076,1.076,0,0,0,.782.245h.941a.756.756,0,0,1,.856.853c0,.358-.069.583-.206.675a1.181,1.181,0,0,1-.65.139H9.079a2.468,2.468,0,0,1-1.925-.65,3.034,3.034,0,0,1-.575-2.043Zm0,0" transform="translate(-6.578 63.922)" fill="#fff"/>
      </g>
      <g id="Group_603" data-name="Group 603" transform="translate(20.488 0.021)">
        <path id="Path_842" data-name="Path 842" d="M-2.91-49.317a1.12,1.12,0,0,1-.639-.149.687.687,0,0,1-.217-.6.985.985,0,0,1,.206-.725.929.929,0,0,1,.65-.192h1.346a1.066,1.066,0,0,0,.778-.245,1.246,1.246,0,0,0,.249-.888v-11.5a.189.189,0,0,1,.213-.213H1.044a.189.189,0,0,1,.213.213v6.5a12.9,12.9,0,0,1,2.33-.938,9.061,9.061,0,0,1,2.629-.387,6.492,6.492,0,0,1,2.476.409,4,4,0,0,1,1.57,1.1,3.97,3.97,0,0,1,.824,1.613,7.735,7.735,0,0,1,.238,1.943,8.494,8.494,0,0,1-.185,1.915,3.16,3.16,0,0,1-.565,1.261,2.075,2.075,0,0,1-1.005.682,4.761,4.761,0,0,1-1.474.2H.916a.863.863,0,0,1-.728-.277,3.123,3.123,0,0,1-1.432.277Zm9-7.46a7.345,7.345,0,0,0-1.307.121,11.329,11.329,0,0,0-1.293.309q-.629.192-1.2.426c-.377.156-.722.313-1.034.469v3.442a4.908,4.908,0,0,1-.107,1.027H7.477a3.753,3.753,0,0,0,.98-.107,1.121,1.121,0,0,0,.6-.373,1.6,1.6,0,0,0,.288-.75,8.425,8.425,0,0,0,.075-1.229,5.7,5.7,0,0,0-.16-1.41A2.438,2.438,0,0,0,8.714-55.9a2.429,2.429,0,0,0-1.027-.65A4.842,4.842,0,0,0,6.088-56.777Zm0,0" transform="translate(3.766 63.828)" fill="#fff"/>
      </g>
    </g>
    <g id="Group_606" data-name="Group 606" transform="translate(22.247 36.602)">
      <g id="Group_605" data-name="Group 605" transform="translate(0 0)">
        <path id="Path_843" data-name="Path 843" d="M6.6-49.389a.188.188,0,0,1-.213-.213V-62.018a.117.117,0,0,0-.131-.131H2.279a.19.19,0,0,1-.217-.213v-1.346a.19.19,0,0,1,.217-.213H12.385a.189.189,0,0,1,.213.213v1.346a.189.189,0,0,1-.213.213H8.41a.115.115,0,0,0-.128.131V-49.6a.189.189,0,0,1-.213.213Zm0,0" transform="translate(-2.063 63.922)" fill="#fff"/>
      </g>
    </g>
    <g id="Group_610" data-name="Group 610" transform="translate(32.463 36.602)">
      <g id="Group_607" data-name="Group 607" transform="translate(0 4.06)">
        <path id="Path_844" data-name="Path 844" d="M12.163-35.59a.188.188,0,0,1-.213-.213v-.9h-.021a2.733,2.733,0,0,1-1.112.963,4.226,4.226,0,0,1-1.922.384,4.691,4.691,0,0,1-1.361-.192,3.081,3.081,0,0,1-1.091-.575,2.741,2.741,0,0,1-.725-.963,3.189,3.189,0,0,1-.266-1.346,2.754,2.754,0,0,1,1.059-2.391,4.912,4.912,0,0,1,2.938-.771h2.33a.115.115,0,0,0,.128-.131v-.746a2,2,0,0,0-.515-1.538,2.938,2.938,0,0,0-1.943-.472,4.408,4.408,0,0,0-1.456.206,4.09,4.09,0,0,0-1.023.522c-.128.1-.228.092-.3-.021l-.579-.984a.237.237,0,0,1,.043-.3,4.671,4.671,0,0,1,1.453-.725,6.691,6.691,0,0,1,2.032-.281,4.706,4.706,0,0,1,3.1.8,3.4,3.4,0,0,1,.92,2.682V-35.8a.189.189,0,0,1-.213.213Zm-2.842-1.3a3.064,3.064,0,0,0,1.9-.522,1.763,1.763,0,0,0,.686-1.485v-1.133a.114.114,0,0,0-.128-.128H9.727a3.667,3.667,0,0,0-1.947.394,1.412,1.412,0,0,0-.6,1.272,1.393,1.393,0,0,0,.554,1.2A2.662,2.662,0,0,0,9.322-36.894Zm0,0" transform="translate(-5.453 46.063)" fill="#fff"/>
      </g>
      <g id="Group_608" data-name="Group 608" transform="translate(11.637 0)">
        <path id="Path_845" data-name="Path 845" d="M7.916-49.389A.188.188,0,0,1,7.7-49.6V-63.709a.189.189,0,0,1,.213-.213H9.284a.191.191,0,0,1,.217.213v5.257h.021a2.786,2.786,0,0,1,1.055-1.012,3.724,3.724,0,0,1,1.851-.4,3.843,3.843,0,0,1,2.241.622A3.37,3.37,0,0,1,15.952-57.4a5.873,5.873,0,0,1,.291,1.272,14.755,14.755,0,0,1,.075,1.613,15.144,15.144,0,0,1-.075,1.627,5.852,5.852,0,0,1-.291,1.279,3.382,3.382,0,0,1-1.282,1.84,3.862,3.862,0,0,1-2.241.618,3.673,3.673,0,0,1-1.851-.4,2.84,2.84,0,0,1-1.055-1.027H9.5v.984a.19.19,0,0,1-.217.213ZM12-50.821a2.154,2.154,0,0,0,2.241-1.559,4.782,4.782,0,0,0,.181-.92c.035-.34.053-.747.053-1.218,0-.454-.019-.853-.053-1.194a5.192,5.192,0,0,0-.181-.941A2.153,2.153,0,0,0,12-58.2a2.148,2.148,0,0,0-2.266,1.542,4.162,4.162,0,0,0-.181.877A12.067,12.067,0,0,0,9.5-54.519a12.405,12.405,0,0,0,.053,1.272,3.835,3.835,0,0,0,.181.867A2.148,2.148,0,0,0,12-50.821Zm0,0" transform="translate(-7.703 63.922)" fill="#fff"/>
      </g>
      <g id="Group_609" data-name="Group 609" transform="translate(23.17 0)">
        <path id="Path_846" data-name="Path 846" d="M7.916-49.389A.188.188,0,0,1,7.7-49.6V-63.709a.189.189,0,0,1,.213-.213H9.284a.191.191,0,0,1,.217.213v5.257h.021a2.786,2.786,0,0,1,1.055-1.012,3.724,3.724,0,0,1,1.851-.4,3.843,3.843,0,0,1,2.241.622A3.37,3.37,0,0,1,15.952-57.4a5.873,5.873,0,0,1,.291,1.272,14.755,14.755,0,0,1,.075,1.613,15.144,15.144,0,0,1-.075,1.627,5.852,5.852,0,0,1-.291,1.279,3.382,3.382,0,0,1-1.282,1.84,3.862,3.862,0,0,1-2.241.618,3.673,3.673,0,0,1-1.851-.4,2.84,2.84,0,0,1-1.055-1.027H9.5v.984a.19.19,0,0,1-.217.213ZM12-50.821a2.154,2.154,0,0,0,2.241-1.559,4.782,4.782,0,0,0,.181-.92c.035-.34.053-.747.053-1.218,0-.454-.019-.853-.053-1.194a5.192,5.192,0,0,0-.181-.941A2.153,2.153,0,0,0,12-58.2a2.148,2.148,0,0,0-2.266,1.542,4.162,4.162,0,0,0-.181.877A12.067,12.067,0,0,0,9.5-54.519a12.405,12.405,0,0,0,.053,1.272,3.835,3.835,0,0,0,.181.867A2.148,2.148,0,0,0,12-50.821Zm0,0" transform="translate(-7.703 63.922)" fill="#fff"/>
      </g>
    </g>
  </g>
</svg>
